<svg xmlns="http://www.w3.org/2000/svg" width="1760" height="540" viewBox="0 0 3520 1080">
  <defs>
    <style>
      .cls-1 {
        fill: #fff;
        fill-rule: evenodd;
      }
    </style>
  </defs>
  <path class="cls-1" d="M3520,1080c-135.81-81.629-279.65-154.659-435-222-109.39-47.418-241.41-104.451-321-135-119.64-45.919-250.43-90.355-386-132-159.24-48.915-798.5-221.743-888-246-128.51-34.83-261.38-69.629-381-99-131.743-32.349-292.875-68.94-443-102-78.8-17.353-179.7-38.329-234-51C333.1,69.918,222.361,43.164,141,27,89.1,16.69,21.537,2.724-6,0-120.664-11.342-207.087,1.3-299-56c-38.962-24.291-98-72.7-88-107,16.225-55.655,205.91-46.23,311-40,162.888,9.657,349.737,7.773,459,24C4093.35,372.021,3253.98-1240.35,3887-88c40.91,74.479,45.86,146.239,44,255-2.13,125.043-48.57,399.3-16,578,24.3,133.347,62.3,286.06,104,383,11.67,27.14,46.63,105.3,12,159-36.49,56.58-140.81,70.66-212,36-33.59-16.35-49.55-38.4-72-64-18.71-21.34-58.59-56.83-95-87C3613.42,1140.04,3570.38,1110.28,3520,1080Z"/>
</svg>
