<svg id="Capa_1" enable-background="new 0 0 512 512" height="512" viewBox="0 0 512 512" width="512" xmlns="http://www.w3.org/2000/svg"><path d="m313.555 309.168-126.859 46.173-107.736-296.003c-3.778-10.38 1.574-21.856 11.953-25.634l89.271-32.492c10.38-3.778 21.856 1.574 25.634 11.953z" fill="#53d8e3"/><path d="m205.819 13.165c-3.778-10.38-15.255-15.731-25.634-11.953l-44.635 16.246 114.577 314.797 63.429-23.086z" fill="#18a8c9"/><g fill="#3555a2"><path d="m169.734 52.903c-7.785 2.833-11.798 11.441-8.965 19.226 2.217 6.091 7.969 9.874 14.096 9.874 1.704 0 3.436-.292 5.129-.909l44.635-16.246-10.261-28.19z"/><path d="m171.461 116.126c-7.785 2.833-11.798 11.441-8.965 19.226 2.217 6.091 7.969 9.874 14.096 9.874 1.704 0 3.436-.292 5.129-.909l63.429-23.086-10.26-28.19z"/><path d="m210.776 165.667c-7.785 2.833-11.798 11.441-8.965 19.226 2.217 6.091 7.969 9.874 14.096 9.874 1.704 0 3.436-.292 5.129-.909l44.635-16.246-10.26-28.19z"/><path d="m203.538 248.114c2.217 6.092 7.969 9.874 14.096 9.874 1.704 0 3.436-.292 5.129-.908l63.429-23.087-10.26-28.19-63.43 23.086c-7.783 2.833-11.797 11.441-8.964 19.225z"/></g><path d="m174.865 82.003c1.704 0 3.436-.292 5.129-.909l44.635-16.246-10.261-28.19-44.635 16.246c-7.785 2.833-11.798 11.441-8.965 19.226 2.218 6.09 7.97 9.873 14.097 9.873z" fill="#1b3555"/><path d="m245.151 121.23-10.261-28.191-63.429 23.086 10.261 28.191z" fill="#1b3555"/><path d="m201.811 184.892c2.217 6.091 7.969 9.874 14.096 9.874 1.704 0 3.436-.292 5.129-.909l44.635-16.246-10.26-28.19-44.635 16.246c-7.784 2.833-11.798 11.44-8.965 19.225z" fill="#1b3555"/><path d="m222.764 257.08 63.429-23.087-10.26-28.191-63.429 23.087z" fill="#1b3555"/><path d="m417.939 8.475c-1.21-7.787-10.532-11.18-16.464-5.992l-79.986 69.946-82.085 225.526 112.763 41.042 82.085-225.526z" fill="#f9d3ab"/><path d="m276.828 85.714h120v240h-120z" fill="#fdb91f" transform="matrix(.94 .342 -.342 .94 90.671 -102.796)"/><path d="m245.018 185.974h240v60h-240z" fill="#fc8b28" transform="matrix(.342 -.94 .94 .342 37.225 485.112)"/><path d="m417.939 8.475c-.605-3.894-3.238-6.689-6.461-7.862l-33.608 92.338 56.382 20.521z" fill="#fdbd86"/><path d="m417.939 8.475c-1.21-7.787-10.532-11.18-16.464-5.993l-14.539 12.714 33.969 12.364z" fill="#3555a2"/><path d="m391.965 98.081-28.191-10.261-81.895 225.005c-.064.176-.106.354-.163.531l28.144 10.244c.07-.172.147-.339.211-.515z" fill="#3555a2"/><path d="m417.939 8.475c-.605-3.894-3.238-6.689-6.461-7.862l-7.558 20.765 16.984 6.182z" fill="#1b3555"/><path d="m310.071 323.085 81.895-225.004-14.095-5.13-82.085 225.526 14.075 5.123c.069-.172.146-.339.21-.515z" fill="#1b3555"/><path d="m396.873 252h-269.072c-11.046 0-20 8.954-20 20v180c0 33.137 26.863 60 60 60h189.072c33.137 0 60-26.863 60-60v-180c0-11.046-8.954-20-20-20z" fill="#57c67f"/><path d="m396.873 252h-134.536v260h94.536c33.137 0 60-26.863 60-60v-180c0-11.046-8.954-20-20-20z" fill="#43a071"/></svg>